<svg width="512" height="512" viewBox="0 0 512 512" fill="none" xmlns="http://www.w3.org/2000/svg">
<path d="M79.6055 355V110H132.105V302.5H228.355V355H79.6055ZM252.91 355V110H352.66C366.077 110 378.21 113.383 389.06 120.15C399.91 126.917 408.485 136.017 414.785 147.45C421.202 158.767 424.41 171.25 424.41 184.9C424.41 195.4 422.66 205.2 419.16 214.3C415.66 223.283 410.644 231.275 404.11 238.275C397.693 245.158 390.11 250.7 381.36 254.9L439.46 355H378.91L323.61 259.8H305.41V355H252.91ZM305.41 207.3H346.36C351.027 207.3 355.285 206.133 359.135 203.8C362.985 201.35 366.077 198.142 368.41 194.175C370.743 190.208 371.91 185.833 371.91 181.05C371.91 176.267 370.743 171.892 368.41 167.925C366.077 163.958 362.985 160.808 359.135 158.475C355.285 156.025 351.027 154.8 346.36 154.8H305.41V207.3Z" fill="#4649DC"/>
<rect x="57" y="412" width="397" height="33" rx="12" fill="#4649DC"/>
</svg>
